<svg width="48" height="48" viewBox="0 0 48 48" fill="none" xmlns="http://www.w3.org/2000/svg">
<rect width="48" height="48" fill="white"/>
<line x1="2" y1="0.5" x2="5" y2="0.5" stroke="#7F7F7F"/>
<line x1="44" y1="0.5" x2="47" y2="0.5" stroke="#7F7F7F"/>
<line x1="1" y1="1.5" x2="7" y2="1.5" stroke="#7F7F7F"/>
<line x1="43" y1="1.5" x2="47" y2="1.5" stroke="#7F7F7F"/>
<line x1="1" y1="2.5" x2="47" y2="2.5" stroke="#7F7F7F"/>
<line x1="1" y1="3.5" x2="5" y2="3.5" stroke="#7F7F7F"/>
<line x1="5" y1="3.5" x2="7" y2="3.5" stroke="#C3C3C3"/>
<line x1="7" y1="3.5" x2="43" y2="3.5" stroke="#7F7F7F"/>
<line x1="43" y1="3.5" x2="45" y2="3.5" stroke="#C3C3C3"/>
<line x1="45" y1="3.5" x2="47" y2="3.5" stroke="#7F7F7F"/>
<line x1="1" y1="4.5" x2="4" y2="4.5" stroke="#7F7F7F"/>
<line x1="4" y1="4.5" x2="6" y2="4.5" stroke="#C3C3C3"/>
<line x1="6" y1="4.5" x2="12" y2="4.5" stroke="#7F7F7F"/>
<line x1="12" y1="4.5" x2="38" y2="4.5" stroke="#C3C3C3"/>
<line x1="38" y1="4.5" x2="44" y2="4.5" stroke="#7F7F7F"/>
<line x1="44" y1="4.5" x2="45" y2="4.5" stroke="#C3C3C3"/>
<line x1="45" y1="4.5" x2="47" y2="4.5" stroke="#7F7F7F"/>
<line x1="1" y1="5.5" x2="3" y2="5.5" stroke="#7F7F7F"/>
<line x1="3" y1="5.5" x2="4" y2="5.5" stroke="#C3C3C3"/>
<line x1="4" y1="5.5" x2="8" y2="5.5" stroke="#7F7F7F"/>
<line x1="8" y1="5.5" x2="42" y2="5.5" stroke="#C3C3C3"/>
<line x1="42" y1="5.5" x2="44" y2="5.5" stroke="#7F7F7F"/>
<line x1="44" y1="5.5" x2="46" y2="5.5" stroke="#C3C3C3"/>
<line x1="46" y1="5.5" x2="47" y2="5.5" stroke="#7F7F7F"/>
<line x1="1" y1="6.5" x2="2" y2="6.5" stroke="#7F7F7F"/>
<line x1="2" y1="6.5" x2="4" y2="6.5" stroke="#C3C3C3"/>
<line x1="4" y1="6.5" x2="6" y2="6.5" stroke="#7F7F7F"/>
<line x1="6" y1="6.5" x2="44" y2="6.5" stroke="#C3C3C3"/>
<line x1="44" y1="6.5" x2="45" y2="6.5" stroke="#7F7F7F"/>
<line x1="45" y1="6.5" x2="46" y2="6.5" stroke="#C3C3C3"/>
<line x1="46" y1="6.5" x2="47" y2="6.5" stroke="#7F7F7F"/>
<line x1="1" y1="7.5" x2="2" y2="7.5" stroke="#7F7F7F"/>
<line x1="2" y1="7.5" x2="3" y2="7.5" stroke="#C3C3C3"/>
<line x1="3" y1="7.5" x2="5" y2="7.5" stroke="#7F7F7F"/>
<line x1="5" y1="7.5" x2="9" y2="7.5" stroke="#C3C3C3"/>
<line x1="9" y1="7.5" x2="41" y2="7.5" stroke="#A2E5F7"/>
<line x1="41" y1="7.5" x2="44" y2="7.5" stroke="#C3C3C3"/>
<line x1="44" y1="7.5" x2="47" y2="7.5" stroke="#7F7F7F"/>
<line x1="1" y1="8.5" x2="5" y2="8.5" stroke="#7F7F7F"/>
<line x1="5" y1="8.5" x2="7" y2="8.5" stroke="#C3C3C3"/>
<line x1="7" y1="8.5" x2="42" y2="8.5" stroke="#A2E5F7"/>
<line x1="42" y1="8.5" x2="44" y2="8.5" stroke="#C3C3C3"/>
<line x1="44" y1="8.5" x2="47" y2="8.5" stroke="#7F7F7F"/>
<line x1="1" y1="9.5" x2="5" y2="9.5" stroke="#7F7F7F"/>
<line x1="5" y1="9.5" x2="7" y2="9.5" stroke="#C3C3C3"/>
<line x1="7" y1="9.5" x2="42" y2="9.5" stroke="#A2E5F7"/>
<line x1="42" y1="9.5" x2="44" y2="9.5" stroke="#C3C3C3"/>
<line x1="44" y1="9.5" x2="47" y2="9.5" stroke="#7F7F7F"/>
<line x1="1" y1="10.5" x2="4" y2="10.5" stroke="#7F7F7F"/>
<line x1="4" y1="10.5" x2="7" y2="10.5" stroke="#C3C3C3"/>
<line x1="7" y1="10.5" x2="42" y2="10.5" stroke="#A2E5F7"/>
<line x1="42" y1="10.5" x2="44" y2="10.5" stroke="#C3C3C3"/>
<line x1="44" y1="10.5" x2="47" y2="10.5" stroke="#7F7F7F"/>
<line x1="1" y1="11.5" x2="4" y2="11.5" stroke="#7F7F7F"/>
<line x1="4" y1="11.5" x2="6" y2="11.5" stroke="#C3C3C3"/>
<line x1="6" y1="11.5" x2="12" y2="11.5" stroke="#A2E5F7"/>
<line x1="12" y1="11.5" x2="18" y2="11.5" stroke="#784315"/>
<line x1="18" y1="11.5" x2="23" y2="11.5" stroke="#A2E5F7"/>
<line x1="23" y1="11.5" x2="29" y2="11.5" stroke="#784315"/>
<line x1="29" y1="11.5" x2="43" y2="11.5" stroke="#A2E5F7"/>
<line x1="43" y1="11.5" x2="44" y2="11.5" stroke="#C3C3C3"/>
<line x1="44" y1="11.5" x2="47" y2="11.5" stroke="#7F7F7F"/>
<line x1="1" y1="12.5" x2="4" y2="12.5" stroke="#7F7F7F"/>
<line x1="4" y1="12.5" x2="6" y2="12.5" stroke="#C3C3C3"/>
<line x1="6" y1="12.5" x2="12" y2="12.5" stroke="#A2E5F7"/>
<line x1="12" y1="12.5" x2="13" y2="12.5" stroke="#784315"/>
<line x1="13" y1="12.5" x2="14" y2="12.5" stroke="#B5E61D"/>
<line x1="14" y1="12.5" x2="15" y2="12.5" stroke="#A2E5F7"/>
<line x1="15" y1="12.5" x2="16" y2="12.5" stroke="#B5E61D"/>
<line x1="16" y1="12.5" x2="17" y2="12.5" stroke="#A2E5F7"/>
<line x1="17" y1="12.5" x2="18" y2="12.5" stroke="#B5E61D"/>
<line x1="18" y1="12.5" x2="19" y2="12.5" stroke="#784315"/>
<line x1="19" y1="12.5" x2="23" y2="12.5" stroke="#A2E5F7"/>
<line x1="23" y1="12.5" x2="24" y2="12.5" stroke="#784315"/>
<line x1="24" y1="12.5" x2="25" y2="12.5" stroke="#B5E61D"/>
<line x1="25" y1="12.5" x2="26" y2="12.5" stroke="#A2E5F7"/>
<line x1="26" y1="12.5" x2="27" y2="12.5" stroke="#B5E61D"/>
<line x1="27" y1="12.5" x2="28" y2="12.5" stroke="#A2E5F7"/>
<line x1="28" y1="12.5" x2="29" y2="12.5" stroke="#B5E61D"/>
<line x1="29" y1="12.5" x2="30" y2="12.5" stroke="#784315"/>
<line x1="30" y1="12.5" x2="33" y2="12.5" stroke="#A2E5F7"/>
<line x1="33" y1="12.5" x2="38" y2="12.5" stroke="#173F3F"/>
<line x1="38" y1="12.5" x2="43" y2="12.5" stroke="#A2E5F7"/>
<line x1="43" y1="12.5" x2="44" y2="12.5" stroke="#C3C3C3"/>
<line x1="44" y1="12.5" x2="47" y2="12.5" stroke="#7F7F7F"/>
<line x1="1" y1="13.5" x2="4" y2="13.5" stroke="#7F7F7F"/>
<line x1="4" y1="13.5" x2="6" y2="13.5" stroke="#C3C3C3"/>
<line x1="6" y1="13.5" x2="12" y2="13.5" stroke="#A2E5F7"/>
<line x1="12" y1="13.5" x2="14" y2="13.5" stroke="#784315"/>
<line x1="14" y1="13.5" x2="17" y2="13.5" stroke="#B5E61D"/>
<line x1="17" y1="13.5" x2="18" y2="13.5" stroke="#A2E5F7"/>
<line x1="18" y1="13.5" x2="19" y2="13.5" stroke="#784315"/>
<line x1="19" y1="13.5" x2="23" y2="13.5" stroke="#A2E5F7"/>
<line x1="23" y1="13.5" x2="25" y2="13.5" stroke="#784315"/>
<line x1="25" y1="13.5" x2="28" y2="13.5" stroke="#B5E61D"/>
<line x1="28" y1="13.5" x2="29" y2="13.5" stroke="#A2E5F7"/>
<line x1="29" y1="13.5" x2="30" y2="13.5" stroke="#784315"/>
<line x1="30" y1="13.5" x2="33" y2="13.5" stroke="#A2E5F7"/>
<line x1="33" y1="13.5" x2="34" y2="13.5" stroke="#173F3F"/>
<line x1="34" y1="13.5" x2="37" y2="13.5" stroke="#A2E5F7"/>
<line x1="37" y1="13.5" x2="38" y2="13.5" stroke="#173F3F"/>
<line x1="38" y1="13.5" x2="43" y2="13.5" stroke="#A2E5F7"/>
<line x1="43" y1="13.5" x2="44" y2="13.5" stroke="#C3C3C3"/>
<line x1="44" y1="13.5" x2="47" y2="13.5" stroke="#7F7F7F"/>
<line x1="1" y1="14.5" x2="4" y2="14.5" stroke="#7F7F7F"/>
<line x1="4" y1="14.5" x2="6" y2="14.5" stroke="#C3C3C3"/>
<line x1="6" y1="14.5" x2="13" y2="14.5" stroke="#A2E5F7"/>
<line x1="13" y1="14.5" x2="14" y2="14.5" stroke="#784315"/>
<line x1="14" y1="14.5" x2="17" y2="14.5" stroke="#B5E61D"/>
<line x1="17" y1="14.5" x2="18" y2="14.5" stroke="#A2E5F7"/>
<line x1="18" y1="14.5" x2="19" y2="14.5" stroke="#784315"/>
<line x1="19" y1="14.5" x2="24" y2="14.5" stroke="#A2E5F7"/>
<line x1="24" y1="14.5" x2="25" y2="14.5" stroke="#784315"/>
<line x1="25" y1="14.5" x2="28" y2="14.5" stroke="#B5E61D"/>
<line x1="28" y1="14.5" x2="29" y2="14.5" stroke="#A2E5F7"/>
<line x1="29" y1="14.5" x2="30" y2="14.5" stroke="#784315"/>
<line x1="30" y1="14.5" x2="33" y2="14.5" stroke="#A2E5F7"/>
<line x1="33" y1="14.5" x2="38" y2="14.5" stroke="#173F3F"/>
<line x1="38" y1="14.5" x2="43" y2="14.5" stroke="#A2E5F7"/>
<line x1="43" y1="14.5" x2="44" y2="14.5" stroke="#C3C3C3"/>
<line x1="44" y1="14.5" x2="47" y2="14.5" stroke="#7F7F7F"/>
<line x1="1" y1="15.5" x2="4" y2="15.5" stroke="#7F7F7F"/>
<line x1="4" y1="15.5" x2="6" y2="15.5" stroke="#C3C3C3"/>
<line x1="6" y1="15.5" x2="12" y2="15.5" stroke="#A2E5F7"/>
<line x1="12" y1="15.5" x2="13" y2="15.5" stroke="#784315"/>
<line x1="13" y1="15.5" x2="14" y2="15.5" stroke="#B5E61D"/>
<line x1="14" y1="15.5" x2="15" y2="15.5" stroke="#A2E5F7"/>
<line x1="15" y1="15.5" x2="16" y2="15.5" stroke="#B5E61D"/>
<line x1="16" y1="15.5" x2="17" y2="15.5" stroke="#A2E5F7"/>
<line x1="17" y1="15.5" x2="18" y2="15.5" stroke="#B5E61D"/>
<line x1="18" y1="15.5" x2="19" y2="15.5" stroke="#784315"/>
<line x1="19" y1="15.5" x2="23" y2="15.5" stroke="#A2E5F7"/>
<line x1="23" y1="15.5" x2="24" y2="15.5" stroke="#784315"/>
<line x1="24" y1="15.5" x2="25" y2="15.5" stroke="#B5E61D"/>
<line x1="25" y1="15.5" x2="26" y2="15.5" stroke="#A2E5F7"/>
<line x1="26" y1="15.5" x2="27" y2="15.5" stroke="#B5E61D"/>
<line x1="27" y1="15.5" x2="28" y2="15.5" stroke="#A2E5F7"/>
<line x1="28" y1="15.5" x2="29" y2="15.5" stroke="#B5E61D"/>
<line x1="29" y1="15.5" x2="30" y2="15.5" stroke="#784315"/>
<line x1="30" y1="15.5" x2="33" y2="15.5" stroke="#A2E5F7"/>
<line x1="33" y1="15.5" x2="34" y2="15.5" stroke="#173F3F"/>
<line x1="34" y1="15.5" x2="37" y2="15.5" stroke="#7F7F7F"/>
<line x1="37" y1="15.5" x2="38" y2="15.5" stroke="#173F3F"/>
<line x1="38" y1="15.5" x2="43" y2="15.5" stroke="#A2E5F7"/>
<line x1="43" y1="15.5" x2="44" y2="15.5" stroke="#C3C3C3"/>
<line x1="44" y1="15.5" x2="47" y2="15.5" stroke="#7F7F7F"/>
<line x1="1" y1="16.5" x2="4" y2="16.5" stroke="#7F7F7F"/>
<line x1="4" y1="16.5" x2="6" y2="16.5" stroke="#C3C3C3"/>
<line x1="6" y1="16.5" x2="12" y2="16.5" stroke="#A2E5F7"/>
<line x1="12" y1="16.5" x2="18" y2="16.5" stroke="#784315"/>
<line x1="18" y1="16.5" x2="23" y2="16.5" stroke="#A2E5F7"/>
<line x1="23" y1="16.5" x2="29" y2="16.5" stroke="#784315"/>
<line x1="29" y1="16.5" x2="33" y2="16.5" stroke="#A2E5F7"/>
<line x1="33" y1="16.5" x2="34" y2="16.5" stroke="#173F3F"/>
<line x1="34" y1="16.5" x2="37" y2="16.5" stroke="#7F7F7F"/>
<line x1="37" y1="16.5" x2="38" y2="16.5" stroke="#173F3F"/>
<line x1="38" y1="16.5" x2="43" y2="16.5" stroke="#A2E5F7"/>
<line x1="43" y1="16.5" x2="44" y2="16.5" stroke="#C3C3C3"/>
<line x1="44" y1="16.5" x2="47" y2="16.5" stroke="#7F7F7F"/>
<line x1="1" y1="17.5" x2="4" y2="17.5" stroke="#7F7F7F"/>
<line x1="4" y1="17.5" x2="6" y2="17.5" stroke="#C3C3C3"/>
<line x1="6" y1="17.5" x2="33" y2="17.5" stroke="#A2E5F7"/>
<line x1="33" y1="17.5" x2="38" y2="17.5" stroke="#173F3F"/>
<line x1="38" y1="17.5" x2="43" y2="17.5" stroke="#A2E5F7"/>
<line x1="43" y1="17.5" x2="45" y2="17.5" stroke="#C3C3C3"/>
<line x1="45" y1="17.5" x2="47" y2="17.5" stroke="#7F7F7F"/>
<line x1="1" y1="18.5" x2="5" y2="18.5" stroke="#7F7F7F"/>
<line x1="5" y1="18.5" x2="6" y2="18.5" stroke="#C3C3C3"/>
<line x1="6" y1="18.5" x2="33" y2="18.5" stroke="#A2E5F7"/>
<line x1="33" y1="18.5" x2="38" y2="18.5" stroke="#173F3F"/>
<line x1="38" y1="18.5" x2="43" y2="18.5" stroke="#A2E5F7"/>
<line x1="43" y1="18.5" x2="45" y2="18.5" stroke="#C3C3C3"/>
<line x1="45" y1="18.5" x2="47" y2="18.5" stroke="#7F7F7F"/>
<line x1="1" y1="19.5" x2="5" y2="19.5" stroke="#7F7F7F"/>
<line x1="5" y1="19.5" x2="6" y2="19.5" stroke="#C3C3C3"/>
<line x1="6" y1="19.5" x2="33" y2="19.5" stroke="#A2E5F7"/>
<line x1="33" y1="19.5" x2="34" y2="19.5" stroke="#173F3F"/>
<line x1="37" y1="19.5" x2="38" y2="19.5" stroke="#173F3F"/>
<line x1="38" y1="19.5" x2="43" y2="19.5" stroke="#A2E5F7"/>
<line x1="43" y1="19.5" x2="45" y2="19.5" stroke="#C3C3C3"/>
<line x1="45" y1="19.5" x2="47" y2="19.5" stroke="#7F7F7F"/>
<line x1="1" y1="20.5" x2="5" y2="20.5" stroke="#7F7F7F"/>
<line x1="5" y1="20.5" x2="6" y2="20.5" stroke="#C3C3C3"/>
<line x1="6" y1="20.5" x2="33" y2="20.5" stroke="#A2E5F7"/>
<line x1="38" y1="20.5" x2="43" y2="20.5" stroke="#A2E5F7"/>
<line x1="43" y1="20.5" x2="45" y2="20.5" stroke="#C3C3C3"/>
<line x1="45" y1="20.5" x2="47" y2="20.5" stroke="#7F7F7F"/>
<line x1="1" y1="21.5" x2="5" y2="21.5" stroke="#7F7F7F"/>
<line x1="5" y1="21.5" x2="6" y2="21.5" stroke="#C3C3C3"/>
<line x1="6" y1="21.5" x2="33" y2="21.5" stroke="#A2E5F7"/>
<line x1="33" y1="21.5" x2="35" y2="21.5" stroke="#ED1C24"/>
<line x1="38" y1="21.5" x2="43" y2="21.5" stroke="#A2E5F7"/>
<line x1="43" y1="21.5" x2="45" y2="21.5" stroke="#C3C3C3"/>
<line x1="45" y1="21.5" x2="47" y2="21.5" stroke="#7F7F7F"/>
<line x1="1" y1="22.5" x2="5" y2="22.5" stroke="#7F7F7F"/>
<line x1="5" y1="22.5" x2="6" y2="22.5" stroke="#C3C3C3"/>
<line x1="6" y1="22.5" x2="33" y2="22.5" stroke="#A2E5F7"/>
<line x1="33" y1="22.5" x2="35" y2="22.5" stroke="#ED1C24"/>
<line x1="37" y1="22.5" x2="38" y2="22.5" stroke="#ED1C24"/>
<line x1="38" y1="22.5" x2="43" y2="22.5" stroke="#A2E5F7"/>
<line x1="43" y1="22.5" x2="45" y2="22.5" stroke="#C3C3C3"/>
<line x1="45" y1="22.5" x2="47" y2="22.5" stroke="#7F7F7F"/>
<line x1="1" y1="23.5" x2="5" y2="23.5" stroke="#7F7F7F"/>
<line x1="5" y1="23.5" x2="6" y2="23.5" stroke="#C3C3C3"/>
<line x1="6" y1="23.5" x2="15" y2="23.5" stroke="#A2E5F7"/>
<line x1="15" y1="23.5" x2="17" y2="23.5" stroke="#B5E61D"/>
<line x1="17" y1="23.5" x2="25" y2="23.5" stroke="#A2E5F7"/>
<line x1="25" y1="23.5" x2="27" y2="23.5" stroke="#B5E61D"/>
<line x1="27" y1="23.5" x2="33" y2="23.5" stroke="#A2E5F7"/>
<line x1="36" y1="23.5" x2="37" y2="23.5" stroke="#ED1C24"/>
<line x1="38" y1="23.5" x2="43" y2="23.5" stroke="#A2E5F7"/>
<line x1="43" y1="23.5" x2="45" y2="23.5" stroke="#C3C3C3"/>
<line x1="45" y1="23.5" x2="47" y2="23.5" stroke="#7F7F7F"/>
<line x1="1" y1="24.5" x2="5" y2="24.5" stroke="#7F7F7F"/>
<line x1="5" y1="24.5" x2="6" y2="24.5" stroke="#C3C3C3"/>
<line x1="6" y1="24.5" x2="15" y2="24.5" stroke="#A2E5F7"/>
<line x1="15" y1="24.5" x2="27" y2="24.5" stroke="#B5E61D"/>
<line x1="27" y1="24.5" x2="33" y2="24.5" stroke="#A2E5F7"/>
<line x1="35" y1="24.5" x2="36" y2="24.5" stroke="#ED1C24"/>
<line x1="38" y1="24.5" x2="43" y2="24.5" stroke="#A2E5F7"/>
<line x1="43" y1="24.5" x2="45" y2="24.5" stroke="#C3C3C3"/>
<line x1="45" y1="24.5" x2="47" y2="24.5" stroke="#7F7F7F"/>
<line x1="1" y1="25.5" x2="5" y2="25.5" stroke="#7F7F7F"/>
<line x1="5" y1="25.5" x2="6" y2="25.5" stroke="#C3C3C3"/>
<line x1="6" y1="25.5" x2="17" y2="25.5" stroke="#A2E5F7"/>
<line x1="17" y1="25.5" x2="25" y2="25.5" stroke="#B5E61D"/>
<line x1="25" y1="25.5" x2="33" y2="25.5" stroke="#A2E5F7"/>
<line x1="34" y1="25.5" x2="35" y2="25.5" stroke="#ED1C24"/>
<line x1="36" y1="25.5" x2="38" y2="25.5" stroke="#ED1C24"/>
<line x1="38" y1="25.5" x2="43" y2="25.5" stroke="#A2E5F7"/>
<line x1="43" y1="25.5" x2="45" y2="25.5" stroke="#C3C3C3"/>
<line x1="45" y1="25.5" x2="47" y2="25.5" stroke="#7F7F7F"/>
<line x1="1" y1="26.5" x2="5" y2="26.5" stroke="#7F7F7F"/>
<line x1="5" y1="26.5" x2="6" y2="26.5" stroke="#C3C3C3"/>
<line x1="6" y1="26.5" x2="33" y2="26.5" stroke="#A2E5F7"/>
<line x1="33" y1="26.5" x2="34" y2="26.5" stroke="#ED1C24"/>
<line x1="36" y1="26.5" x2="38" y2="26.5" stroke="#ED1C24"/>
<line x1="38" y1="26.5" x2="43" y2="26.5" stroke="#A2E5F7"/>
<line x1="43" y1="26.5" x2="44" y2="26.5" stroke="#C3C3C3"/>
<line x1="44" y1="26.5" x2="47" y2="26.5" stroke="#7F7F7F"/>
<line x1="1" y1="27.5" x2="5" y2="27.5" stroke="#7F7F7F"/>
<line x1="5" y1="27.5" x2="6" y2="27.5" stroke="#C3C3C3"/>
<line x1="6" y1="27.5" x2="34" y2="27.5" stroke="#A2E5F7"/>
<line x1="37" y1="27.5" x2="43" y2="27.5" stroke="#A2E5F7"/>
<line x1="43" y1="27.5" x2="44" y2="27.5" stroke="#C3C3C3"/>
<line x1="44" y1="27.5" x2="47" y2="27.5" stroke="#7F7F7F"/>
<line x1="1" y1="28.5" x2="5" y2="28.5" stroke="#7F7F7F"/>
<line x1="5" y1="28.5" x2="7" y2="28.5" stroke="#C3C3C3"/>
<line x1="7" y1="28.5" x2="43" y2="28.5" stroke="#A2E5F7"/>
<line x1="43" y1="28.5" x2="44" y2="28.5" stroke="#C3C3C3"/>
<line x1="44" y1="28.5" x2="47" y2="28.5" stroke="#7F7F7F"/>
<line x1="1" y1="29.5" x2="5" y2="29.5" stroke="#7F7F7F"/>
<line x1="5" y1="29.5" x2="7" y2="29.5" stroke="#C3C3C3"/>
<line x1="7" y1="29.5" x2="42" y2="29.5" stroke="#A2E5F7"/>
<line x1="42" y1="29.5" x2="44" y2="29.5" stroke="#C3C3C3"/>
<line x1="44" y1="29.5" x2="47" y2="29.5" stroke="#7F7F7F"/>
<line x1="1" y1="30.5" x2="5" y2="30.5" stroke="#7F7F7F"/>
<line x1="5" y1="30.5" x2="8" y2="30.5" stroke="#C3C3C3"/>
<line x1="8" y1="30.5" x2="42" y2="30.5" stroke="#A2E5F7"/>
<line x1="42" y1="30.5" x2="44" y2="30.5" stroke="#C3C3C3"/>
<line x1="44" y1="30.5" x2="47" y2="30.5" stroke="#7F7F7F"/>
<line x1="1" y1="31.5" x2="3" y2="31.5" stroke="#7F7F7F"/>
<line x1="3" y1="31.5" x2="4" y2="31.5" stroke="#C3C3C3"/>
<line x1="4" y1="31.5" x2="5" y2="31.5" stroke="#7F7F7F"/>
<line x1="5" y1="31.5" x2="8" y2="31.5" stroke="#C3C3C3"/>
<line x1="8" y1="31.5" x2="41" y2="31.5" stroke="#A2E5F7"/>
<line x1="41" y1="31.5" x2="44" y2="31.5" stroke="#C3C3C3"/>
<line x1="44" y1="31.5" x2="47" y2="31.5" stroke="#7F7F7F"/>
<line x1="1" y1="32.5" x2="3" y2="32.5" stroke="#7F7F7F"/>
<line x1="3" y1="32.5" x2="4" y2="32.5" stroke="#C3C3C3"/>
<line x1="4" y1="32.5" x2="6" y2="32.5" stroke="#7F7F7F"/>
<line x1="6" y1="32.5" x2="44" y2="32.5" stroke="#C3C3C3"/>
<line x1="44" y1="32.5" x2="47" y2="32.5" stroke="#7F7F7F"/>
<line x1="1" y1="33.5" x2="3" y2="33.5" stroke="#7F7F7F"/>
<line x1="3" y1="33.5" x2="4" y2="33.5" stroke="#C3C3C3"/>
<line x1="4" y1="33.5" x2="9" y2="33.5" stroke="#7F7F7F"/>
<line x1="9" y1="33.5" x2="43" y2="33.5" stroke="#C3C3C3"/>
<line x1="43" y1="33.5" x2="45" y2="33.5" stroke="#7F7F7F"/>
<line x1="45" y1="33.5" x2="46" y2="33.5" stroke="#C3C3C3"/>
<line x1="46" y1="33.5" x2="47" y2="33.5" stroke="#7F7F7F"/>
<line x1="1" y1="34.5" x2="3" y2="34.5" stroke="#7F7F7F"/>
<line x1="3" y1="34.5" x2="5" y2="34.5" stroke="#C3C3C3"/>
<line x1="5" y1="34.5" x2="19" y2="34.5" stroke="#7F7F7F"/>
<line x1="19" y1="34.5" x2="33" y2="34.5" stroke="#C3C3C3"/>
<line x1="33" y1="34.5" x2="45" y2="34.5" stroke="#7F7F7F"/>
<line x1="45" y1="34.5" x2="46" y2="34.5" stroke="#C3C3C3"/>
<line x1="46" y1="34.5" x2="47" y2="34.5" stroke="#7F7F7F"/>
<line x1="1" y1="35.5" x2="4" y2="35.5" stroke="#7F7F7F"/>
<line x1="4" y1="35.5" x2="7" y2="35.5" stroke="#C3C3C3"/>
<line x1="7" y1="35.5" x2="44" y2="35.5" stroke="#7F7F7F"/>
<line x1="44" y1="35.5" x2="46" y2="35.5" stroke="#C3C3C3"/>
<line x1="46" y1="35.5" x2="47" y2="35.5" stroke="#7F7F7F"/>
<line x1="2" y1="36.5" x2="6" y2="36.5" stroke="#7F7F7F"/>
<line x1="6" y1="36.5" x2="8" y2="36.5" stroke="#C3C3C3"/>
<line x1="8" y1="36.5" x2="42" y2="36.5" stroke="#7F7F7F"/>
<line x1="42" y1="36.5" x2="45" y2="36.5" stroke="#C3C3C3"/>
<line x1="45" y1="36.5" x2="47" y2="36.5" stroke="#7F7F7F"/>
<line x1="2" y1="37.5" x2="47" y2="37.5" stroke="#7F7F7F"/>
<line x1="2" y1="38.5" x2="46" y2="38.5" stroke="#7F7F7F"/>
<line x1="2" y1="39.5" x2="45" y2="39.5" stroke="#7F7F7F"/>
<line x1="3" y1="40.5" x2="10" y2="40.5" stroke="#7F7F7F"/>
<line x1="10" y1="40.5" x2="13" y2="40.5" stroke="#A39CBD"/>
<line x1="13" y1="40.5" x2="35" y2="40.5" stroke="#7F7F7F"/>
<line x1="35" y1="40.5" x2="38" y2="40.5" stroke="#A39CBD"/>
<line x1="38" y1="40.5" x2="42" y2="40.5" stroke="#7F7F7F"/>
<line x1="7" y1="41.5" x2="9" y2="41.5" stroke="#7F7F7F"/>
<line x1="9" y1="41.5" x2="10" y2="41.5" stroke="#A39CBD"/>
<line x1="13" y1="41.5" x2="14" y2="41.5" stroke="#A39CBD"/>
<line x1="14" y1="41.5" x2="16" y2="41.5" stroke="#7F7F7F"/>
<line x1="32" y1="41.5" x2="34" y2="41.5" stroke="#7F7F7F"/>
<line x1="34" y1="41.5" x2="35" y2="41.5" stroke="#A39CBD"/>
<line x1="38" y1="41.5" x2="39" y2="41.5" stroke="#A39CBD"/>
<line x1="39" y1="41.5" x2="41" y2="41.5" stroke="#7F7F7F"/>
<line x1="7" y1="42.5" x2="9" y2="42.5" stroke="#7F7F7F"/>
<line x1="9" y1="42.5" x2="10" y2="42.5" stroke="#A39CBD"/>
<line x1="10" y1="42.5" x2="13" y2="42.5" stroke="#7F7F7F"/>
<line x1="13" y1="42.5" x2="14" y2="42.5" stroke="#A39CBD"/>
<line x1="14" y1="42.5" x2="16" y2="42.5" stroke="#7F7F7F"/>
<line x1="32" y1="42.5" x2="34" y2="42.5" stroke="#7F7F7F"/>
<line x1="34" y1="42.5" x2="35" y2="42.5" stroke="#A39CBD"/>
<line x1="35" y1="42.5" x2="38" y2="42.5" stroke="#7F7F7F"/>
<line x1="38" y1="42.5" x2="39" y2="42.5" stroke="#A39CBD"/>
<line x1="39" y1="42.5" x2="41" y2="42.5" stroke="#7F7F7F"/>
<line x1="8" y1="43.5" x2="10" y2="43.5" stroke="#7F7F7F"/>
<line x1="10" y1="43.5" x2="13" y2="43.5" stroke="#A39CBD"/>
<line x1="13" y1="43.5" x2="15" y2="43.5" stroke="#7F7F7F"/>
<line x1="33" y1="43.5" x2="35" y2="43.5" stroke="#7F7F7F"/>
<line x1="35" y1="43.5" x2="38" y2="43.5" stroke="#A39CBD"/>
<line x1="38" y1="43.5" x2="40" y2="43.5" stroke="#7F7F7F"/>
<line x1="9" y1="44.5" x2="14" y2="44.5" stroke="#7F7F7F"/>
<line x1="33" y1="44.5" x2="40" y2="44.5" stroke="#7F7F7F"/>
</svg>
